PathFileType	4	(X/Y/Z)	C:/Users/beibeiliu/ov580/test_trc/User3\sequence.13_training_dense_right.trc
DataRate	CameraRate	NumFrames	NumMarkers	Units	OrigDataRate	OrigDataStartFrame	OrigNumFrames
120	120	10	19	mm	120	82	109
Frame#	Time	ThumbCMC			ThumbMCP			ThumbIP			ThumbTip			IndexMCP			IndexPIP			IndexTip			MiddleMCP			MiddlePIP			MiddleTip			RingMCP			RingPIP			RingTip			PinkyMCP			PinkyPIP			PinkyTip			BackHand1			BackHand2			BackHand3	
		X0	Y0	Z0	X1	Y1	Z1	X2	Y2	Z2	X3	Y3	Z3	X4	Y4	Z4	X5	Y5	Z5	X6	Y6	Z6	X7	Y7	Z7	X8	Y8	Z8	X9	Y9	Z9	X10	Y10	Z10	X11	Y11	Z11	X12	Y12	Z12	X13	Y13	Z13	X14	Y14	Z14	X15	Y15	Z15	X16	Y16	Z16	X17	Y17	Z17	X18	Y18	Z18	
81	0.675	128.378	-12.3312	-4.49203	101.731	6.18931	-23.277	76.4089	11.9677	-39.361	53.1374	3.0783	-43.6658	108.559	-39.2741	-75.1564	98.833	-34.3904	-98.2784	88.7573	-32.6129	-121.568	83.0861	-53.9055	-70.7038	64.868	-43.2165	-91.6432	48.0178	-26.3248	-111.228	67.6784	-54.3379	-52.3012	48.6955	-29.0298	-59.4199	46.7157	-6.41672	-34.3618	61.8731	-69.234	-31.5849	44.6645	-71.2783	-45.2059	29.5361	-72.1118	-61.5912	105.291	-70.3991	-6.97808	114.424	-72.9214	19.5819	130.696	-54.3015	-8.00716	
82	0.683333	150.617	-26.2043	-7.93659	131.695	-8.66485	-33.054	110.345	-3.49315	-55.069	88.0221	-4.61313	-65.4439	133.069	-62.7251	-75.2576	131.772	-59.8758	-98.6165	125.266	-57.6455	-120.631	111.375	-69.2174	-72.1724	104.114	-60.8315	-96.9888	86.3467	-41.3655	-125.319	90.7229	-63.1584	-60.7252	79.3096	-36.6013	-73.1186	78.0541	-11.8831	-57.159	79.2218	-74.0674	-35.4751	62.5505	-76.3085	-53.808	51.4558	-76.6905	-72.1176	111.75	-81.1257	-9.90966	119.778	-79.4828	18.5646	143.624	-68.0098	-6.36062	
83	0.691667	164.441	-44.5224	-0.981424	154.221	-28.9276	-36.022	141.223	-25.52	-60.9827	122.255	-28.32	-79.2645	165.953	-90.7216	-62.657	172.287	-90.7398	-92.4386	172.318	-87.8499	-118.106	141.931	-97.0485	-66.1027	139.947	-91.0114	-94.6199	133.678	-75.3993	-124.66	122.711	-87.1557	-58.3573	111.523	-67.5566	-79.156	110.994	-33.1509	-71.3839	102.283	-96.2679	-42.1758	93.2212	-99.8969	-63.3237	84.7083	-101.313	-81.7521	127.381	-98.2106	-2.92153	126.477	-89.0788	27.9203	159.53	-85.7126	5.40795	
84	0.7	176.955	-49.0335	3.74983	168.689	-41.3437	-31.9662	160.593	-39.4414	-63.3852	146.607	-45.2058	-79.4413	202.264	-98.1745	-50.9717	206.085	-100.88	-78.8488	209.661	-98.2103	-104.788	177.355	-108.037	-55.7504	179.084	-106.67	-89.282	173.15	-95.8178	-119.793	154.696	-103.554	-57.1465	140.677	-87.9853	-79.2611	137.734	-55.697	-76.7102	130.978	-111.574	-35.7945	124.587	-119.948	-59.0749	124.86	-120.634	-82.499	154.485	-106.852	1.03354	143.797	-97.5869	29.1682	175.736	-89.7515	13.4619	
85	0.708333	182.118	-39.0787	6.14299	175.132	-31.5221	-29.3501	169.102	-37.4094	-59.108	160.796	-42.4819	-80.7258	224.065	-77.563	-40.4576	235.164	-77.2905	-67.0704	240.521	-74.9226	-94.0206	210.758	-94.3753	-51.7499	211.926	-94.274	-77.6199	209.346	-82.8888	-113.188	181.91	-101.129	-52.3895	175.665	-87.4176	-76.0445	153.319	-60.7932	-76.9415	165.091	-113.294	-38.2078	164.819	-120.125	-58.2126	167.903	-119.343	-84.8297	176.192	-99.1935	8.40004	159.467	-91.6761	33.8862	189.726	-76.0168	23.6241	
86	0.716667	174.497	-20.2151	7.27484	165.965	-14.2129	-28.0104	166.464	-20.7436	-61.5649	161.395	-30.3736	-80.7443	233.276	-39.858	-37.5958	240.784	-35.1016	-59.2993	248.622	-32.3291	-89.1681	225.804	-63.1592	-45.1241	230.401	-58.4692	-75.0357	225.041	-47.2113	-108.076	204.305	-77.4436	-51.0338	192.565	-65.0341	-75.4912	165.322	-46.9344	-76.2534	191.632	-94.5932	-35.9097	199.434	-98.8605	-57.9172	202.798	-100.035	-79.8148	192.499	-80.7849	7.83832	174.945	-81.8363	34.5747	198.156	-52.8595	24.2112	
87	0.725	156.603	-9.02171	9.48218	153.841	-5.19337	-30.4337	154.814	-8.4032	-62.3134	158.683	-21.4479	-83.3771	222.284	-4.2237	-34.4851	228.686	5.67788	-55.7559	235.242	16.3083	-79.1421	225.695	-24.6339	-44.1978	228.202	-16.389	-70.2271	223.413	-12.8919	-102.396	210.748	-45.9712	-48.5055	195.605	-43.2946	-74.9886	165.479	-36.6611	-78.4769	205.649	-71.7832	-35.7307	214.483	-70.7505	-56.5846	219.657	-72.1301	-82.0441	198.432	-59.488	10.7556	180.133	-64.2644	30.8599	188.085	-30.372	26.2414	
88	0.733333	136.463	-6.65373	9.70234	130.426	-0.315082	-29.7641	136.76	-4.42246	-58.6756	146.625	-16.4887	-79.745	197.64	19.2255	-33.482	204.053	32.7421	-58.4788	205.886	45.3022	-81.3975	210.043	-0.888226	-44.5326	210.862	8.39789	-69.2772	204.752	16.4711	-102.922	199.705	-19.9397	-49.6098	184.989	-22.3955	-76.5202	153.397	-32.1254	-81.549	204.686	-46.5572	-34.7591	215.825	-47.1901	-58.275	222.213	-44.3002	-83.0156	193.381	-36.0477	6.16138	178.748	-48.4425	29.3675	175.133	-14.0362	24.8339	
89	0.741667	121.228	-9.39452	4.89024	111.728	-7.22508	-29.2718	116.971	-7.339	-61.7219	127.309	-18.0528	-78.7667	169.598	28.3295	-35.9145	170.309	42.9857	-56.9212	177.477	52.1816	-83.7987	185.736	10.2046	-45.6287	184.564	22.1505	-74.2505	177.322	27.0317	-106.869	182.619	-11.0301	-52.2618	171.558	-18.0653	-77.296	142.294	-28.7783	-85.4282	195.677	-37.4298	-38.6353	203.337	-32.554	-57.1162	211.608	-31.2992	-79.3049	181.401	-30.9611	6.3941	171.304	-45.6127	26.8563	158.749	-6.99569	21.6349	
90	0.75	105.393	-17.7203	7.33501	96.9915	-14.6945	-30.6209	102.909	-16.0009	-62.6995	112.455	-25.7903	-82.6883	148.464	28.2946	-38.568	150.994	36.8082	-61.0701	150.875	48.6321	-83.8799	167.377	8.93244	-47.016	163.204	19.6177	-75.8192	158.324	23.4011	-105.779	169.358	-15.6476	-52.3512	152.906	-21.9358	-80.8713	127.663	-39.6993	-86.5561	181.888	-35.683	-39.5513	191.875	-33.8888	-61.3779	195.949	-29.1762	-81.0489	169.821	-26.6135	2.65113	158.696	-44.8004	30.2441	144.569	-9.02336	21.1531	
